<svg width="88" height="90" viewBox="0 0 88 90" fill="none" xmlns="http://www.w3.org/2000/svg">
<path d="M20.5493 44.9998C29.5713 -11.3986 56.0736 -17.7701 67.0692 44.9998" stroke="#E5DFD9" stroke-width="1.5"/>
<path d="M67.0486 45H20.5631C18.0305 51.5027 12.8019 75.7418 43.6833 74.8796C76.1169 73.9742 68.274 49.6918 67.0486 45Z" stroke="#E5DFD9" stroke-width="1.5"/>
<path d="M18.8958 59.7339C18.1878 64.755 16.4863 75.8672 16.617 77.1843C16.8621 88.0496 24.1331 88.2965 33.5282 89.0373C42.3515 89.7331 57.6288 88.741 58.9359 88.5435C66.7788 87.885 70.6185 85.7448 70.6185 77.1843C70.2014 71.9985 70.038 70.8462 68.4041 59.7339" stroke="#E5DFD9" stroke-width="1.5"/>
<path d="M21.8416 45.0002C32.02 -13.6798 55.87 -11.8798 65.777 45.0002" stroke="#E5DFD9" stroke-width="1.5"/>
<path d="M55.2239 83.7002H63.8387" stroke="#E5DFD9" stroke-width="1.5"/>
<path d="M40.2256 74.8933V76.3671C40.2256 77.4717 41.121 78.3671 42.2256 78.3671H44.9957C46.1002 78.3671 46.9957 77.4717 46.9957 76.3671V74.7104" stroke="#E5DFD9" stroke-width="1.5"/>
</svg>
